HIERARCHY
ROOT Hips
{
  OFFSET -259.112 99.3202 278.881
  CHANNELS 6 Xposition Yposition Zposition Zrotation Xrotation Yrotation
  JOINT ToSpine
  {
    OFFSET -2.69724 7.43032 -0.144315
    CHANNELS 3 Zrotation Xrotation Yrotation
    JOINT Spine
    {
      OFFSET -0.0310711 10.7595 1.96963
      CHANNELS 3 Zrotation Xrotation Yrotation
      JOINT Spine1
      {
        OFFSET 19.9056 3.91189 0.764692
        CHANNELS 3 Zrotation Xrotation Yrotation
        JOINT Neck
        {
          OFFSET 25.9749 7.03908 -0.130764
          CHANNELS 3 Zrotation Xrotation Yrotation
          JOINT Head
          {
            OFFSET 9.52751 0.295786 -0.907742
            CHANNELS 3 Zrotation Xrotation Yrotation
            End Site
            {
              OFFSET 16.4037 0.713936 2.7358
            }
          }
        }
        JOINT LeftShoulder
        {
          OFFSET 17.7449 4.33886 11.7777
          CHANNELS 3 Zrotation Xrotation Yrotation
          JOINT LeftArm
          {
            OFFSET 0.911315 1.27913 9.80584
            CHANNELS 3 Zrotation Xrotation Yrotation
            JOINT LeftForeArm
            {
              OFFSET 28.6126 1.18197 -3.53199
              CHANNELS 3 Zrotation Xrotation Yrotation
              JOINT LeftHand
              {
                OFFSET 27.5088 0.0218783 0.327423
                CHANNELS 3 Zrotation Xrotation Yrotation
                End Site
                {
                  OFFSET 18.6038 -0.000155887 0.382096
                }
              }
            }
          }
        }
        JOINT RightShoulder
        {
          OFFSET 17.1009 2.89543 -12.2328
          CHANNELS 3 Zrotation Xrotation Yrotation
          JOINT RightArm
          {
            OFFSET 1.4228 0.178766 -10.211
            CHANNELS 3 Zrotation Xrotation Yrotation
            JOINT RightForeArm
            {
              OFFSET 28.733 1.87905 2.64907
              CHANNELS 3 Zrotation Xrotation Yrotation
              JOINT RightHand
              {
                OFFSET 27.4588 0.290562 -0.101845
                CHANNELS 3 Zrotation Xrotation Yrotation
                End Site
                {
                  OFFSET 17.8396 -0.255518 -0.000602873
                }
              }
            }
          }
        }
      }
    }
  }
  JOINT LeftUpLeg
  {
    OFFSET -5.61296 -2.22332 -10.2353
    CHANNELS 3 Zrotation Xrotation Yrotation
    JOINT LeftLeg
    {
      OFFSET 2.56703 -44.7417 -7.93097
      CHANNELS 3 Zrotation Xrotation Yrotation
      JOINT LeftFoot
      {
        OFFSET 3.16933 -46.5642 -3.96578
        CHANNELS 3 Zrotation Xrotation Yrotation
        JOINT LeftToeBase
        {
          OFFSET 0.346054 -6.02161 12.8035
          CHANNELS 3 Zrotation Xrotation Yrotation
          End Site
          {
            OFFSET 0.134235 -1.35082 5.13018
          }
        }
      }
    }
  }
  JOINT RightUpLeg
  {
    OFFSET -5.7928 -1.72406 10.6446
    CHANNELS 3 Zrotation Xrotation Yrotation
    JOINT RightLeg
    {
      OFFSET -2.57161 -44.7178 -7.85259
      CHANNELS 3 Zrotation Xrotation Yrotation
      JOINT RightFoot
      {
        OFFSET -3.10148 -46.5936 -4.03391
        CHANNELS 3 Zrotation Xrotation Yrotation
        JOINT RightToeBase
        {
          OFFSET -0.0828122 -6.13587 12.8035
          CHANNELS 3 Zrotation Xrotation Yrotation
          End Site
          {
            OFFSET -0.131328 -1.35082 5.13018
          }
        }
      }
    }
  }
}
MOTION
Frames:	6
Frame Time:	0.0333333
116.138 107.865 -92.5599 -60.8678 -44.5619 -158.607 -70.1915 0 88.8779 78.9248 70.8136 8.51719 2.75741 19.0356 7.05637 -150.576 21.0759 168.976 -143.499 57.7505 167.88 2.06175 -5.70512 -36.9029 -97.3475 45.6595 -90.0633 -8.89325 48.2092 0.102593 0.120283 0.00983803 2.73739 0.463503 -1.4725 45.8127 -73.7946 -33.572 93.3634 -1.67347 -9.64185 15.5373 8.40365 -0.413376 -6.44255 -57.6261 -4.37662 92.491 3.78434 16.3586 -6.09191 8.07897 8.49206 -1.06792 -11.8854 -29.3277 1.98466 -57.8487 7.78567 81.9699 -0.169842 19.6662 -1.24412 -6.38611 -5.9428 1.03912 0.176214 2.82367 1.96298 
116.252 107.903 -92.6107 -61.174 -44.6815 -158.375 -70.1915 0 88.8779 78.1103 70.649 9.30438 3.50719 18.9125 6.92856 -150.363 20.9041 168.272 -143.928 57.732 168.254 2.00615 -5.8226 -36.2176 -97.4335 46.6747 -89.4333 -8.75225 48.6053 -0.0991446 -0.332676 0.00705145 1.71626 0.480494 -1.51927 46.115 -67.6737 -33.4586 96.8411 0.190148 -6.70654 18.1407 9.03268 -0.2973 -4.41025 -57.6699 -3.96134 92.7162 3.88446 16.5801 -6.3774 8.31905 8.31692 -1.1142 -11.8809 -29.198 1.74051 -58.4412 8.36643 82.2922 -0.226332 18.8281 -1.78229 -6.25321 -5.69816 1.0256 0.320078 3.72775 1.97588 
116.44 107.962 -92.6476 -61.4915 -44.2367 -158.763 -70.1915 0 88.8779 77.019 70.7315 10.0652 3.69894 19.0784 6.84619 -149.407 20.2382 166.513 -142.207 56.6827 166.506 1.95932 -5.91881 -35.5917 -97.3323 47.2884 -88.7025 -8.73428 47.7795 -0.373487 -0.263655 0.0077658 1.29303 0.507222 -1.58597 46.7894 -62.5848 -32.7002 99.5641 1.84283 -4.14132 20.4099 9.2226 -0.227954 -3.39877 -58.0181 -3.87435 92.9204 3.64981 15.8976 -5.88225 8.45701 8.43306 -1.14073 -11.7401 -28.7587 1.51168 -58.4285 8.22085 82.2403 -0.139792 18.8024 -1.17168 -6.1853 -5.53436 1.01778 0.299659 3.76275 2.12871 
116.539 108.004 -92.6021 -61.3053 -44.2861 -158.75 -70.1915 0 88.8779 74.6017 70.5272 11.9158 4.12213 18.9399 7.17856 -149.298 19.9589 166.677 -143.21 56.5398 166.673 2.00529 -5.70011 -35.4647 -97.0504 47.6675 -88.2351 -8.23099 47.0631 -1.3487 -0.0356626 0.0095872 0.9556 0.534137 -1.66646 46.8872 -59.1565 -32.262 101.316 3.07897 -1.78942 22.7619 9.00298 -0.25701 -3.8751 -58.2165 -3.79055 93.2171 3.1709 15.2291 -6.00262 8.61681 8.61962 -1.17192 -11.631 -28.3895 1.2667 -58.2761 8.02975 82.2388 -0.208558 18.8205 -1.11485 -5.94277 -5.40674 0.997338 0.319175 3.83912 2.08607 
116.595 108.035 -92.4471 -62.073 -44.1563 -159.568 -70.1915 0 88.8779 73.5174 70.7328 12.7149 4.57887 19.2678 7.04715 -148.374 19.9788 166.25 -143.033 56.6255 166.588 1.98364 -5.82778 -35.6705 -96.9916 47.4977 -87.5327 -7.02344 46.8701 -2.93103 -0.14666 0.00927268 0.985572 0.566347 -1.75949 47.0912 -59.5599 -32.3247 100.995 3.68461 -1.66689 24.756 8.4966 -0.426031 -6.55406 -59.2247 -4.02748 93.2854 3.0947 14.4001 -5.62205 8.54163 8.7 -1.15749 -11.4079 -27.9052 1.34569 -58.7514 7.714 82.1124 -0.217286 18.9828 -0.4109 -5.93522 -5.33767 0.995401 0.327415 3.64053 1.84962 
116.737 108.039 -92.4092 -62.0904 -44.299 -159.625 -70.1915 0 88.8779 73.7983 70.7096 12.4526 4.31823 19.2792 6.87171 -148.332 20.1558 166.516 -143.385 56.8105 166.294 2.02047 -5.63736 -35.4796 -97.4926 47.6555 -87.5311 -7.88151 47.8904 -1.50959 -0.256268 0.00882851 0.879709 0.583014 -1.82065 46.7802 -60.6173 -33.0172 100.643 4.08419 -2.40661 26.1418 8.10127 -0.505096 -8.08754 -59.3481 -4.18984 93.2348 3.05358 14.2036 -5.66064 8.50672 8.65922 -1.15064 -11.2501 -27.5687 1.41972 -58.6239 7.72792 82.2752 -0.494944 19.2364 -0.426197 -5.6914 -5.19101 0.97375 0.32284 3.19349 1.439 
